# xmcd
#
# Track frame offsets: 
#        150
#        15845
#        33051
#        49495
#        56334
#        63782
#        67843
#        92593
#        105414
#        160713
#        185766
#        209072
#        215502
#
# Disc length: 3741 seconds
#
# Revision: 0
# Processed by: cddbd v1.5.2PL0 Copyright (c) Steve Scherf et al.
# Submitted via: ExactAudioCopy v0.95b3
#
DISCID=a50e9b0d
DTITLE=Jimi Hendrix  - Studio Sessions Vol.1 (Voodoo Chile Records  Bo
DTITLE=x-Set) - Disc 3
DYEAR=1900
DGENRE=
TTITLE0=Voodoo Child (Slight Return)
TTITLE1=Voodoo Child (Slight Return)
TTITLE2=Voodoo Child (Slight Return)
TTITLE3=Voodoo Child (Slight Return)
TTITLE4=Voodoo Child (Slight Return)
TTITLE5=Voodoo Child (Slight Return)
TTITLE6=Voodoo Child (Slight Return)
TTITLE7=Little Miss Strange
TTITLE8=Jazz Jimi Jazz Jam
TTITLE9=Have You Ever Been(To Electric Ladyland)
TTITLE10=Rainy Day Shuffle
TTITLE11=And The Gods Made Love
TTITLE12=Jam 1 (Js6)
EXTD=
EXTT0=
EXTT1=
EXTT2=
EXTT3=
EXTT4=
EXTT5=
EXTT6=
EXTT7=
EXTT8=
EXTT9=
EXTT10=
EXTT11=
EXTT12=
PLAYORDER=
